<?xml version="1.0" encoding="UTF-8" standalone="no"?>
<!DOCTYPE svg PUBLIC "-//W3C//DTD SVG 1.1//EN"
 "http://www.w3.org/Graphics/SVG/1.1/DTD/svg11.dtd">
<!-- Generated by graphviz version 2.43.0 (0)
 -->
<!-- Title: %3 Pages: 1 -->
<svg width="800pt" height="607pt"
 viewBox="0.00 0.00 799.81 607.13" xmlns="http://www.w3.org/2000/svg" xmlns:xlink="http://www.w3.org/1999/xlink">
<g id="graph0" class="graph" transform="scale(1 1) rotate(0) translate(4 603.13)">
<title>%3</title>
<polygon fill="white" stroke="transparent" points="-4,4 -4,-603.13 795.81,-603.13 795.81,4 -4,4"/>
<!-- Erna Solberg -->
<g id="node1" class="node">
<title>Erna Solberg</title>
<ellipse fill="none" stroke="black" cx="412.65" cy="-299.57" rx="72.29" ry="18"/>
<text text-anchor="middle" x="412.65" y="-295.87" font-family="Times,serif" font-size="14.00">Erna Solberg</text>
</g>
<!-- Kari Helliesen -->
<g id="node2" class="node">
<title>Kari Helliesen</title>
<ellipse fill="none" stroke="black" cx="681.32" cy="-397.35" rx="76.89" ry="18"/>
<text text-anchor="middle" x="681.32" y="-393.65" font-family="Times,serif" font-size="14.00">Kari Helliesen</text>
</g>
<!-- Erna Solberg&#45;&#45;Kari Helliesen -->
<g id="edge1" class="edge">
<title>Erna Solberg&#45;&#45;Kari Helliesen</title>
<path fill="none" stroke="black" d="M453.45,-314.42C503.8,-332.74 588.96,-363.74 639.68,-382.2"/>
</g>
<!-- Kjell Sund -->
<g id="node3" class="node">
<title>Kjell Sund</title>
<ellipse fill="none" stroke="black" cx="555.6" cy="-547.17" rx="58.49" ry="18"/>
<text text-anchor="middle" x="555.6" y="-543.47" font-family="Times,serif" font-size="14.00">Kjell Sund</text>
</g>
<!-- Erna Solberg&#45;&#45;Kjell Sund -->
<g id="edge2" class="edge">
<title>Erna Solberg&#45;&#45;Kjell Sund</title>
<path fill="none" stroke="black" d="M423.16,-317.77C449.66,-363.68 518.96,-483.7 545.27,-529.27"/>
</g>
<!-- Karl Sørmo -->
<g id="node4" class="node">
<title>Karl Sørmo</title>
<ellipse fill="none" stroke="black" cx="363" cy="-581.13" rx="63.89" ry="18"/>
<text text-anchor="middle" x="363" y="-577.43" font-family="Times,serif" font-size="14.00">Karl Sørmo</text>
</g>
<!-- Erna Solberg&#45;&#45;Karl Sørmo -->
<g id="edge3" class="edge">
<title>Erna Solberg&#45;&#45;Karl Sørmo</title>
<path fill="none" stroke="black" d="M409.47,-317.61C400.52,-368.34 375.21,-511.88 366.22,-562.88"/>
</g>
<!-- Oddlaug Vereide -->
<g id="node5" class="node">
<title>Oddlaug Vereide</title>
<ellipse fill="none" stroke="black" cx="193.63" cy="-483.35" rx="87.99" ry="18"/>
<text text-anchor="middle" x="193.63" y="-479.65" font-family="Times,serif" font-size="14.00">Oddlaug Vereide</text>
</g>
<!-- Erna Solberg&#45;&#45;Oddlaug Vereide -->
<g id="edge4" class="edge">
<title>Erna Solberg&#45;&#45;Oddlaug Vereide</title>
<path fill="none" stroke="black" d="M392.04,-316.86C350.41,-351.79 256.65,-430.47 214.66,-465.7"/>
</g>
<!-- Anne Marie Blomstereng -->
<g id="node6" class="node">
<title>Anne Marie Blomstereng</title>
<ellipse fill="none" stroke="black" cx="126.74" cy="-299.57" rx="126.98" ry="18"/>
<text text-anchor="middle" x="126.74" y="-295.87" font-family="Times,serif" font-size="14.00">Anne Marie Blomstereng</text>
</g>
<!-- Erna Solberg&#45;&#45;Anne Marie Blomstereng -->
<g id="edge5" class="edge">
<title>Erna Solberg&#45;&#45;Anne Marie Blomstereng</title>
<path fill="none" stroke="black" d="M340.5,-299.57C314.12,-299.57 283.43,-299.57 253.67,-299.57"/>
</g>
<!-- Steinar Høgaas -->
<g id="node7" class="node">
<title>Steinar Høgaas</title>
<ellipse fill="none" stroke="black" cx="193.63" cy="-115.79" rx="82.59" ry="18"/>
<text text-anchor="middle" x="193.63" y="-112.09" font-family="Times,serif" font-size="14.00">Steinar Høgaas</text>
</g>
<!-- Erna Solberg&#45;&#45;Steinar Høgaas -->
<g id="edge6" class="edge">
<title>Erna Solberg&#45;&#45;Steinar Høgaas</title>
<path fill="none" stroke="black" d="M392.04,-282.28C350.41,-247.34 256.65,-168.67 214.66,-133.43"/>
</g>
<!-- Kari Mette Prestrud -->
<g id="node8" class="node">
<title>Kari Mette Prestrud</title>
<ellipse fill="none" stroke="black" cx="363" cy="-18" rx="104.78" ry="18"/>
<text text-anchor="middle" x="363" y="-14.3" font-family="Times,serif" font-size="14.00">Kari Mette Prestrud</text>
</g>
<!-- Erna Solberg&#45;&#45;Kari Mette Prestrud -->
<g id="edge7" class="edge">
<title>Erna Solberg&#45;&#45;Kari Mette Prestrud</title>
<path fill="none" stroke="black" d="M409.47,-281.52C400.52,-230.79 375.21,-87.25 366.22,-36.26"/>
</g>
<!-- Marit Wikholm -->
<g id="node9" class="node">
<title>Marit Wikholm</title>
<ellipse fill="none" stroke="black" cx="555.6" cy="-51.96" rx="79.89" ry="18"/>
<text text-anchor="middle" x="555.6" y="-48.26" font-family="Times,serif" font-size="14.00">Marit Wikholm</text>
</g>
<!-- Erna Solberg&#45;&#45;Marit Wikholm -->
<g id="edge8" class="edge">
<title>Erna Solberg&#45;&#45;Marit Wikholm</title>
<path fill="none" stroke="black" d="M423.16,-281.36C449.66,-235.46 518.96,-115.43 545.27,-69.86"/>
</g>
<!-- Ruth Kleppe Aakvaag -->
<g id="node10" class="node">
<title>Ruth Kleppe Aakvaag</title>
<ellipse fill="none" stroke="black" cx="681.32" cy="-201.78" rx="110.48" ry="18"/>
<text text-anchor="middle" x="681.32" y="-198.08" font-family="Times,serif" font-size="14.00">Ruth Kleppe Aakvaag</text>
</g>
<!-- Erna Solberg&#45;&#45;Ruth Kleppe Aakvaag -->
<g id="edge9" class="edge">
<title>Erna Solberg&#45;&#45;Ruth Kleppe Aakvaag</title>
<path fill="none" stroke="black" d="M453.45,-284.71C502.63,-266.82 585,-236.83 636.08,-218.24"/>
</g>
</g>
</svg>